/* XPM */
static char * font_xpm[] = {
"128 32 5 1",
" 	c #000000",
".	c #404040",
"+	c #808080",
"@	c #C0C0C0",
"#	c #FFFFFF",
"                                                                                                                                ",
"           ##    ##  ##            #    ##   +#     #      ##     ####   ####                                                +# ",
"           ##    #.  #.  ## ##  .#####@     +#+  .#####    #.    ##.       .##   +#+#+                                      +#+ ",
"           ##           ####### ## # ..    +#+   ## #            ##         ##    +#+      ##                              +#+  ",
"           ##            ## ##  .#####.   +#+    .####           ##         ##  #######  ######          ######           +#+   ",
"           ##           ####### .. # ##  +#+     ## #            ##         ##    +#+      ##                            +#+    ",
"                         ## ##  @#####. +#+      .#####          ##.       .##   +#+#+             ##                   +#+     ",
"           ##                      #    #+   ##     #             ####   ####                      #.              ##   #+      ",
"                                                                                                                                ",
" #####     +#   @#####  @#####     +##  #######  #####@ #######  #####   #####                                            ####  ",
"##   ##   +##   ..   ## ..   ##   +###  ##      ##   ..     +#+ ##   ## ##   ##                    +#+           +#+         ## ",
"##   ##  +###        ##      ##  +#+##  ##      ##         +#+  ##. .## ##   ##                   +#+    ######   +#+        ## ",
"##   ##    ##    #####    ####  +#+ ##  ######  ######    +#+    #####   ######    ##      ##    +#+               +#+      ##  ",
"##   ##    ##   ##           ## #######      ## ##   ##  +#+    ##. .##      ##                   +#+    ######   +#+      ##   ",
"##   ##    ##   ##      ..   ##     ##  ..   ## ##   ## +#+     ##   ## ..   ##            ##      +#+           +#+            ",
" #####     ##   ####### @#####      ##  @#####   #####  #+       #####  @#####     ##      #.                              ##   ",
"                                                                                                                                ",
" #####   #####  ######   #####@ ######  ####### #######  #####@ ##   ##    ##        ## ##   ## ##      ##. .## ##.  ##  #####  ",
"##   ## ##   ## ##   ## ##   .. ##   ## ##      ##      ##   .. ##   ##    ##        ## ##   ## ##      ###.### ###. ## ##   ## ",
"## #### ##   ## ##  .## ##      ##   ## ##      ##      ##      ##   ##    ##        ## ##  .## ##      ####### ####.## ##   ## ",
"##.# ## ####### ######  ##      ##   ## #####   #####   ##  ### #######    ##        ## ######  ##      ## # ## ##.#### ##   ## ",
"##.#### ##   ## ##  .## ##      ##   ## ##      ##      ##   ## ##   ##    ##        ## ##  .## ##      ##   ## ## .### ##   ## ",
"##   .. ##   ## ##   ## ##   .. ##   ## ##      ##      ##   ## ##   ##    ##        ## ##   ## ##      ##   ## ##  .## ##   ## ",
" #####@ ##   ## ######   #####@ ######  ####### ##       ###### ##   ##    ##   @#####  ##   ## ####### ##   ## ##   ##  #####  ",
"                                                                                                                                ",
"######   #####  ######   #####@  ###### ##   ## ##   ## ##   ## ##   ## ##   ## #######  #####  #+       #####    +#+           ",
"##   ## ##   ## ##   ## ##   ..    ##   ##   ## ##   ## ##   ## ##   ## ##   ##     +#+  ##     +#+         ##   +#+#+          ",
"##   ## ##   ## ##  .## ##         ##   ##   ## ##   ## ##   ## ##. .## ##   ##    +#+   ##      +#+        ##                  ",
"######  ##   ## ######   #####     ##   ##   ## ##   ## ## # ##  #####   ######   +#+    ##       +#+       ##                  ",
"##      ##   ## ##  .##      ##    ##   ##   ## +#+ +#+ ####### ##. .##      ##  +#+     ##        +#+      ##                  ",
"##      ##  .## ##   ## ..   ##    ##   ##   ##  +#+#+  ###.### ##   ## ..   ## +#+      ##         +#+     ##                  ",
"##       ###### ##   ## @#####     ##    #####    +#+   ##. .## ##   ## @#####  #######  #####       +#  #####          ####### "};
